<svg width="41" height="40" viewBox="0 0 41 40" fill="none" xmlns="http://www.w3.org/2000/svg">
<rect width="41" height="40" rx="15" fill="#D5D5D5" fill-opacity="0.5"/>
<path d="M13 33.5C11.5584 33.5007 10.1575 33.0222 9.0176 32.1397C7.8777 31.2572 7.06352 30.0208 6.70312 28.625H3.25V25.375H6.70475C7.00866 24.198 7.63656 23.1297 8.51714 22.2916C9.39771 21.4535 10.4957 20.8792 11.6863 20.6338C12.8769 20.3884 14.1125 20.4818 15.2527 20.9034C16.3929 21.3251 17.392 22.058 18.1365 23.0189C18.8811 23.9799 19.3412 25.1304 19.4647 26.3397C19.5882 27.5491 19.3701 28.7689 18.8351 29.8605C18.3001 30.9521 17.4698 31.8718 16.4383 32.5151C15.4068 33.1585 14.2156 33.4997 13 33.5ZM13 23.75C12.3636 23.7506 11.7414 23.9381 11.2105 24.2892C10.6797 24.6403 10.2636 25.1395 10.0139 25.7248C9.7642 26.3102 9.69186 26.956 9.80586 27.5822C9.91986 28.2083 10.2152 28.7872 10.6552 29.247C11.0952 29.7068 11.6605 30.0273 12.281 30.1687C12.9015 30.3102 13.5499 30.2663 14.1457 30.0426C14.7415 29.8189 15.2585 29.4252 15.6326 28.9103C16.0067 28.3954 16.2214 27.782 16.25 27.1463V27.7963V27C16.25 26.138 15.9076 25.3114 15.2981 24.7019C14.6886 24.0924 13.862 23.75 13 23.75ZM35.75 28.625H21.125V25.375H35.75V28.625ZM21.125 20.5C19.6837 20.5004 18.2831 20.0217 17.1436 19.1392C16.004 18.2567 15.1901 17.0205 14.8298 15.625H3.25V12.375H14.8298C15.1337 11.198 15.7616 10.1297 16.6421 9.29163C17.5227 8.45354 18.6207 7.87919 19.8113 7.6338C21.0019 7.38842 22.2375 7.48183 23.3777 7.90345C24.5179 8.32506 25.517 9.05797 26.2615 10.0189C27.0061 10.9799 27.4662 12.1304 27.5897 13.3397C27.7132 14.5491 27.4951 15.7689 26.9601 16.8605C26.4251 17.9521 25.5948 18.8718 24.5633 19.5151C23.5318 20.1585 22.3406 20.4997 21.125 20.5ZM21.125 10.75C20.4886 10.7506 19.8664 10.9381 19.3355 11.2892C18.8047 11.6403 18.3886 12.1394 18.1389 12.7248C17.8892 13.3102 17.8169 13.956 17.9309 14.5822C18.0449 15.2083 18.3402 15.7872 18.7802 16.247C19.2202 16.7068 19.7855 17.0273 20.406 17.1687C21.0265 17.3102 21.6749 17.2663 22.2707 17.0426C22.8665 16.8189 23.3835 16.4252 23.7576 15.9103C24.1317 15.3954 24.3464 14.782 24.375 14.1463V14.7963V14C24.375 13.138 24.0326 12.3114 23.4231 11.7019C22.8136 11.0924 21.987 10.75 21.125 10.75ZM35.75 15.625H29.25V12.375H35.75V15.625Z" fill="black"/>
</svg>
