<svg width="50" height="50" viewBox="0 0 50 50" fill="none" xmlns="http://www.w3.org/2000/svg">
<path d="M9.375 29.6875C8.1318 29.6875 6.93951 29.1936 6.06044 28.3146C5.18136 27.4355 4.6875 26.2432 4.6875 25C4.6875 23.7568 5.18136 22.5645 6.06044 21.6854C6.93951 20.8064 8.1318 20.3125 9.375 20.3125C10.6182 20.3125 11.8105 20.8064 12.6896 21.6854C13.5686 22.5645 14.0625 23.7568 14.0625 25C14.0625 26.2432 13.5686 27.4355 12.6896 28.3146C11.8105 29.1936 10.6182 29.6875 9.375 29.6875ZM25 29.6875C23.7568 29.6875 22.5645 29.1936 21.6854 28.3146C20.8064 27.4355 20.3125 26.2432 20.3125 25C20.3125 23.7568 20.8064 22.5645 21.6854 21.6854C22.5645 20.8064 23.7568 20.3125 25 20.3125C26.2432 20.3125 27.4355 20.8064 28.3146 21.6854C29.1936 22.5645 29.6875 23.7568 29.6875 25C29.6875 26.2432 29.1936 27.4355 28.3146 28.3146C27.4355 29.1936 26.2432 29.6875 25 29.6875ZM40.625 29.6875C39.3818 29.6875 38.1895 29.1936 37.3104 28.3146C36.4314 27.4355 35.9375 26.2432 35.9375 25C35.9375 23.7568 36.4314 22.5645 37.3104 21.6854C38.1895 20.8064 39.3818 20.3125 40.625 20.3125C41.8682 20.3125 43.0605 20.8064 43.9396 21.6854C44.8186 22.5645 45.3125 23.7568 45.3125 25C45.3125 26.2432 44.8186 27.4355 43.9396 28.3146C43.0605 29.1936 41.8682 29.6875 40.625 29.6875Z" fill="black"/>
</svg>
